<svg xmlns="http://www.w3.org/2000/svg" width="512" height="512" viewBox="0 0 51.976 51.976"><path fill="#FFF" d="M44.373 7.603c-10.137-10.137-26.632-10.138-36.77 0-10.138 10.138-10.137 26.632 0 36.77s26.632 10.138 36.77 0c10.137-10.138 10.137-26.633 0-36.77zM36.24 36.24c-.78.782-2.046.782-2.827 0l-7.425-7.424-7.778 7.778c-.78.78-2.047.78-2.828 0-.78-.78-.78-2.047 0-2.828l7.778-7.778-7.425-7.425c-.78-.78-.78-2.048 0-2.828.78-.78 2.047-.78 2.828 0l7.425 7.425 7.07-7.07c.782-.782 2.048-.782 2.83 0 .78.78.78 2.046 0 2.827l-7.072 7.07 7.425 7.426c.782.78.782 2.047 0 2.828z"/></svg>