<svg xmlns="http://www.w3.org/2000/svg" width="512" height="512" viewBox="0 0 485.213 485.213"><g fill="#FFF"><path d="M363.91 181.955C363.91 81.473 282.44 0 181.955 0 81.474 0 0 81.473 0 181.955s81.474 181.95 181.956 181.95c100.484 0 181.953-81.468 181.953-181.95zm-181.954 136.46c-75.252 0-136.465-61.207-136.465-136.46 0-75.25 61.214-136.464 136.466-136.464 75.25 0 136.468 61.214 136.468 136.466 0 75.252-61.218 136.46-136.468 136.46zM471.882 407.567L360.567 296.243c-16.586 25.795-38.536 47.734-64.33 64.32L407.56 471.89c17.772 17.768 46.587 17.768 64.32 0 17.774-17.74 17.774-46.554.002-64.32z"/></g></svg>