<?xml version="1.0" encoding="iso-8859-1"?>
<!-- Generator: Adobe Illustrator 19.0.0, SVG Export Plug-In . SVG Version: 6.00 Build 0)  -->
<svg version="1.1" id="Layer_1" xmlns="http://www.w3.org/2000/svg" xmlns:xlink="http://www.w3.org/1999/xlink" x="0px" y="0px"
	 viewBox="0 0 512 512" style="enable-background:new 0 0 512 512;" xml:space="preserve">
<g>
	<g>
		<path d="M438.895,386.359l-1.828-0.531c-26.469-7.109-35.406-13.938-47.188-18.422c-41.812-15.922-52.688-27.406-55.469-32.812
			c-0.094-0.203-0.172-0.406-0.266-0.609l-0.078-12.625c8.406-8.328,16.406-17.672,23.688-27.797
			c34.656-9.469,52.828-30.461,58.359-50.797c4.203-15.477,1.453-30.914-6.828-42.852l2.719-10.273
			c15.844-59.852,11.125-106.75-14.031-139.414c-7.828-10.172-16.969-18.031-26.469-24.125C367.191,22.766,335.582,0,275.41,0
			c-22.328,0-46.125,3.164-70.727,9.406c-32.609,8.266-58.336,26.328-76.484,53.664c-14.828,22.336-24.594,51.008-29.039,85.203
			c-7.578,58.367,2.086,120.781,8.523,152.789l11.477,57.031l9.508-57.406c0.039-0.234,2.438-14.25,9.188-34
			c10.594,20.719,24.68,39.406,40.094,54.672l-0.086,12.625c-0.094,0.203-0.172,0.406-0.266,0.609
			c-2.781,5.406-13.656,16.891-55.461,32.812c-11.781,4.484-20.734,11.312-47.203,18.422l-1.82,0.531
			c-24.094,7.953-40.305,30.297-40.305,55.516V512h223.195h223.188v-70.125C479.191,416.656,462.988,394.312,438.895,386.359z
			 M395.535,237.172c-2.609,9.547-9.344,18.297-19.156,25.016c7.547-15.719,13.047-32.516,15.594-49.836
			C396.598,219.188,398.004,228.031,395.535,237.172z M381.067,63.242c17.062,22.156,22.499,53.336,16.281,92.922
			c-2.453-3.328-5.281-6.766-8.531-10.188c-9-9.492-22.344-20-41.25-27.375l22.969-66.57
			C374.286,55.328,377.848,59.031,381.067,63.242z M121.151,249.984c-3.453-29.531-5.234-65.086-0.836-98.961
			c4.023-30.938,12.648-56.562,25.656-76.156c15.125-22.789,36.648-37.859,63.953-44.789c22.891-5.805,44.93-8.75,65.484-8.75
			c28.953,0,50,5.898,62.562,10.852c6.25,2.461,11.062,4.93,14.469,6.891l-25.688,74.438c-8.719-0.977-17.281-1.469-25.578-1.469
			c-37.336,0-70.852,9.883-99.617,29.375c-22.867,15.492-42.664,37-58.852,63.922C133.379,220.852,126.362,236.297,121.151,249.984z
			 M148.949,239.055c3.539-7.594,7.641-15.445,12.367-23.266c14.586-24.109,32.25-43.258,52.5-56.914
			c25.109-16.922,54.5-25.5,87.359-25.5c9.891,0,20.25,0.781,30.812,2.312c14.016,4.211,26.141,10.914,36.328,20.086
			c2.594,11.164,3.906,22.961,3.906,35.258c0,27.477-9.766,56.922-27.344,83.641c-7.531,1.516-15.688,2.406-24.375,2.641
			c-5.062-9.82-17.141-16.633-31.188-16.633c-0.438,0-0.891,0.008-1.344,0.023c-18.898,0.57-33.844,13.266-33.383,28.328
			c0.453,14.719,15.422,26.281,33.727,26.281c0.438,0,0.875,0,1.328-0.031c13.672-0.406,25.297-7.172,30.484-16.594
			c2.156-0.062,4.266-0.125,6.344-0.25c-11.766,13-24.781,23.906-37.781,31.625c-12.234,7.266-23.844,11.266-32.688,11.266
			c-8.844,0-20.453-4-32.688-11.266c-13.719-8.125-27.438-19.812-39.688-33.766C168.184,278.688,156.395,259.047,148.949,239.055z
			 M301.707,287.594c0.016,0.422-0.484,1.484-1.922,2.703c-2.594,2.203-6.531,3.547-10.781,3.672c-0.25,0-0.469,0-0.688,0
			c-8.031,0-12.359-4.141-12.406-5.578c0-0.422,0.5-1.484,1.922-2.703c2.594-2.188,6.531-3.531,10.797-3.656
			c0.219-0.016,0.469-0.016,0.688-0.016C297.332,282.016,301.66,286.156,301.707,287.594z M256.004,490.656H54.145v-48.781
			c0-15.891,10.164-29.969,25.328-35.156l1.195-0.344c19.945-5.375,30.961-10.641,39.812-14.875
			c3.422-1.641,6.375-3.062,9.258-4.156c23.883-9.094,56.805-23.469,66.82-43c0.391-0.75,0.672-1.391,0.828-1.75l1.453-3.25
			c19.828,14.688,40.219,23.312,57.164,23.312c16.938,0,37.344-8.625,57.156-23.312l1.469,3.25c0.141,0.328,0.422,0.984,0.812,1.734
			c10.031,19.547,42.938,33.922,66.844,43.016c2.875,1.094,5.812,2.516,9.25,4.156c8.844,4.234,19.859,9.5,39.812,14.875
			l1.188,0.344c15.156,5.188,25.328,19.266,25.328,35.156v48.781H256.004z"/>
	</g>
</g>
</svg>
